<?xml version="1.0" encoding="utf-8"?>
<!-- Generator: Adobe Illustrator 26.5.2, SVG Export Plug-In . SVG Version: 6.00 Build 0)  -->
<svg version="1.1" id="Layer_1" xmlns="http://www.w3.org/2000/svg" xmlns:xlink="http://www.w3.org/1999/xlink" x="0px" y="0px"
	 viewBox="0 0 194 100" style="enable-background:new 0 0 194 100;" xml:space="preserve">
<style type="text/css">
	.st0{fill-rule:evenodd;clip-rule:evenodd;fill:#0068B3;}
	.st1{fill-rule:evenodd;clip-rule:evenodd;fill:#FFFFFF;}
	.st2{fill-rule:evenodd;clip-rule:evenodd;fill:none;stroke:#FFFFFF;stroke-width:3;stroke-miterlimit:2.6131;}
	.st3{fill-rule:evenodd;clip-rule:evenodd;fill:#E42E16;}
</style>
<rect x="-26.6" y="-9" class="st0" width="230.9" height="129.9"/>
<g>
	<rect x="12.5" y="89.6" class="st1" width="162" height="0.4"/>
	<g>
		<path class="st1" d="M13.3,95.6l0.4,0c0,0.2,0.1,0.3,0.1,0.5c0.1,0.1,0.2,0.2,0.3,0.3c0.1,0.1,0.3,0.1,0.5,0.1
			c0.2,0,0.4-0.1,0.6-0.2c0.1-0.1,0.2-0.3,0.2-0.4c0-0.1,0-0.2-0.1-0.3c0-0.1-0.1-0.1-0.2-0.2c-0.1,0-0.3-0.1-0.6-0.2
			c-0.3-0.1-0.5-0.2-0.6-0.2c-0.1-0.1-0.2-0.2-0.3-0.3c-0.1-0.1-0.1-0.3-0.1-0.4c0-0.3,0.1-0.5,0.3-0.7c0.2-0.2,0.5-0.3,0.8-0.3
			c0.2,0,0.4,0,0.6,0.1c0.2,0.1,0.3,0.2,0.4,0.4c0.1,0.2,0.1,0.3,0.2,0.6l-0.4,0c0-0.2-0.1-0.4-0.2-0.5c-0.1-0.1-0.3-0.2-0.5-0.2
			c-0.2,0-0.4,0-0.5,0.1c-0.1,0.1-0.2,0.2-0.2,0.4c0,0.1,0,0.3,0.1,0.3c0.1,0.1,0.3,0.2,0.6,0.2c0.3,0.1,0.5,0.1,0.6,0.2
			c0.2,0.1,0.3,0.2,0.4,0.4c0.1,0.1,0.1,0.3,0.1,0.5c0,0.2,0,0.4-0.2,0.5c-0.1,0.2-0.2,0.3-0.4,0.4c-0.2,0.1-0.4,0.1-0.6,0.1
			c-0.4,0-0.7-0.1-0.9-0.3C13.4,96.3,13.3,96,13.3,95.6z"/>
		<path class="st1" d="M19.4,93.3h0.4v2c0,0.3,0,0.6-0.1,0.8c-0.1,0.2-0.2,0.4-0.4,0.5c-0.2,0.1-0.4,0.2-0.7,0.2
			c-0.4,0-0.7-0.1-0.9-0.3c-0.2-0.2-0.3-0.6-0.3-1.2v-2h0.4v2c0,0.3,0,0.5,0.1,0.7c0.1,0.1,0.1,0.2,0.3,0.3c0.1,0.1,0.3,0.1,0.4,0.1
			c0.3,0,0.5-0.1,0.6-0.2c0.1-0.2,0.2-0.5,0.2-0.9V93.3z"/>
		<path class="st1" d="M22,94.9h0.8c0.2,0,0.4-0.1,0.5-0.2c0.1-0.1,0.2-0.3,0.2-0.5c0-0.1,0-0.3-0.1-0.4c-0.1-0.1-0.1-0.2-0.2-0.2
			c-0.1,0-0.2-0.1-0.4-0.1H22V94.9L22,94.9z M21.6,96.8v-3.5h1.1c0.3,0,0.5,0,0.6,0.1c0.2,0.1,0.3,0.2,0.4,0.3
			c0.1,0.2,0.2,0.4,0.2,0.6c0,0.3-0.1,0.6-0.3,0.8c-0.2,0.2-0.5,0.3-0.9,0.3H22v1.4H21.6z"/>
		<polygon class="st1" points="25.6,96.8 25.6,93.3 27.8,93.3 27.8,93.7 26,93.7 26,94.7 27.7,94.7 27.7,95.2 26,95.2 26,96.4 
			27.9,96.4 27.9,96.8 		"/>
		<path class="st1" d="M30,94.8h0.9c0.2,0,0.3,0,0.4-0.1c0.1,0,0.2-0.1,0.2-0.2c0.1-0.1,0.1-0.2,0.1-0.3c0-0.2-0.1-0.3-0.2-0.4
			c-0.1-0.1-0.3-0.2-0.5-0.2h-1V94.8L30,94.8z M29.6,96.8v-3.5h1.4c0.3,0,0.5,0,0.6,0.1c0.1,0.1,0.2,0.2,0.3,0.3
			C32,93.8,32,94,32,94.2c0,0.3-0.1,0.5-0.2,0.6c-0.1,0.2-0.4,0.3-0.6,0.3c0.1,0.1,0.2,0.1,0.3,0.2c0.1,0.1,0.2,0.3,0.3,0.4l0.5,1
			h-0.5L31.3,96c-0.2-0.3-0.3-0.5-0.4-0.6c-0.1-0.1-0.2-0.2-0.2-0.2c-0.1,0-0.2-0.1-0.3-0.1H30v1.6H29.6z"/>
		<rect x="33.9" y="93.3" class="st1" width="0.4" height="3.5"/>
		<path class="st1" d="M36.4,95.1c0,0.4,0.1,0.8,0.3,1c0.2,0.2,0.4,0.4,0.7,0.4c0.3,0,0.5-0.1,0.7-0.4c0.2-0.2,0.3-0.6,0.3-1.1
			c0-0.3-0.1-0.6-0.2-0.8c-0.1-0.2-0.2-0.3-0.4-0.4c-0.2-0.1-0.3-0.2-0.5-0.2c-0.3,0-0.6,0.1-0.8,0.4C36.5,94.2,36.4,94.6,36.4,95.1
			L36.4,95.1z M36,95.1c0-0.6,0.1-1.1,0.4-1.4c0.3-0.3,0.6-0.5,1-0.5c0.3,0,0.5,0.1,0.7,0.2c0.2,0.1,0.4,0.4,0.5,0.6
			c0.1,0.3,0.2,0.6,0.2,1c0,0.5-0.1,0.9-0.4,1.3c-0.3,0.4-0.6,0.5-1.1,0.5c-0.4,0-0.8-0.2-1.1-0.6C36.1,95.9,36,95.5,36,95.1z"/>
		<path class="st1" d="M41,94.8h0.9c0.2,0,0.3,0,0.4-0.1c0.1,0,0.2-0.1,0.2-0.2c0.1-0.1,0.1-0.2,0.1-0.3c0-0.2-0.1-0.3-0.2-0.4
			c-0.1-0.1-0.3-0.2-0.5-0.2h-1V94.8L41,94.8z M40.6,96.8v-3.5h1.4c0.3,0,0.5,0,0.6,0.1c0.1,0.1,0.2,0.2,0.3,0.3
			C43,93.8,43,94,43,94.2c0,0.3-0.1,0.5-0.2,0.6c-0.1,0.2-0.4,0.3-0.6,0.3c0.1,0.1,0.2,0.1,0.3,0.2c0.1,0.1,0.2,0.3,0.3,0.4l0.5,1
			h-0.5L42.4,96c-0.2-0.3-0.3-0.5-0.4-0.6c-0.1-0.1-0.2-0.2-0.2-0.2c-0.1,0-0.2-0.1-0.3-0.1H41v1.6H40.6z"/>
		<polygon class="st1" points="47.8,96.8 47.8,93.7 46.8,93.7 46.8,93.3 49.2,93.3 49.2,93.7 48.2,93.7 48.2,96.8 		"/>
		<polygon class="st1" points="50.8,96.8 50.8,93.3 53,93.3 53,93.7 51.2,93.7 51.2,94.7 52.9,94.7 52.9,95.2 51.2,95.2 51.2,96.4 
			53.1,96.4 53.1,96.8 		"/>
		<path class="st1" d="M56.9,95.5l0.4,0.1c-0.1,0.4-0.2,0.7-0.5,0.9c-0.2,0.2-0.5,0.3-0.8,0.3c-0.3,0-0.5-0.1-0.7-0.2
			c-0.2-0.1-0.4-0.3-0.5-0.6c-0.1-0.3-0.2-0.6-0.2-1c0-0.4,0.1-0.7,0.2-1c0.1-0.3,0.3-0.5,0.5-0.6c0.2-0.1,0.5-0.2,0.7-0.2
			c0.3,0,0.5,0.1,0.8,0.3c0.2,0.2,0.4,0.4,0.4,0.8l-0.4,0.1c-0.1-0.5-0.4-0.7-0.8-0.7c-0.2,0-0.4,0-0.5,0.1
			c-0.1,0.1-0.3,0.3-0.4,0.5c-0.1,0.2-0.1,0.5-0.1,0.8c0,0.5,0.1,0.8,0.3,1.1c0.2,0.2,0.4,0.4,0.7,0.4c0.2,0,0.4-0.1,0.6-0.2
			C56.8,96.1,56.9,95.8,56.9,95.5z"/>
		<polygon class="st1" points="59,96.8 59,93.3 59.4,93.3 59.4,94.7 61,94.7 61,93.3 61.4,93.3 61.4,96.8 61,96.8 61,95.1 
			59.4,95.1 59.4,96.8 		"/>
		<polygon class="st1" points="63.2,96.8 63.2,93.3 63.6,93.3 65.2,96 65.2,93.3 65.6,93.3 65.6,96.8 65.2,96.8 63.6,94 63.6,96.8 
					"/>
		<path class="st1" d="M67.7,95.1c0,0.4,0.1,0.8,0.3,1c0.2,0.2,0.4,0.4,0.7,0.4c0.3,0,0.5-0.1,0.7-0.4c0.2-0.2,0.3-0.6,0.3-1.1
			c0-0.3-0.1-0.6-0.2-0.8c-0.1-0.2-0.2-0.3-0.4-0.4c-0.2-0.1-0.3-0.2-0.5-0.2c-0.3,0-0.6,0.1-0.8,0.4C67.8,94.2,67.7,94.6,67.7,95.1
			L67.7,95.1z M67.3,95.1c0-0.6,0.1-1.1,0.4-1.4c0.3-0.3,0.6-0.5,1-0.5c0.3,0,0.5,0.1,0.7,0.2c0.2,0.1,0.4,0.4,0.5,0.6
			c0.1,0.3,0.2,0.6,0.2,1c0,0.5-0.1,0.9-0.4,1.3c-0.3,0.4-0.6,0.5-1.1,0.5c-0.4,0-0.8-0.2-1.1-0.6C67.4,95.9,67.3,95.5,67.3,95.1z"
			/>
		<polygon class="st1" points="71.9,96.8 71.9,93.3 72.3,93.3 72.3,96.4 73.8,96.4 73.8,96.8 		"/>
		<path class="st1" d="M75.7,95.1c0,0.4,0.1,0.8,0.3,1c0.2,0.2,0.4,0.4,0.7,0.4c0.3,0,0.5-0.1,0.7-0.4c0.2-0.2,0.3-0.6,0.3-1.1
			c0-0.3-0.1-0.6-0.2-0.8c-0.1-0.2-0.2-0.3-0.4-0.4c-0.2-0.1-0.3-0.2-0.5-0.2c-0.3,0-0.6,0.1-0.8,0.4C75.8,94.2,75.7,94.6,75.7,95.1
			L75.7,95.1z M75.3,95.1c0-0.6,0.1-1.1,0.4-1.4c0.3-0.3,0.6-0.5,1-0.5c0.3,0,0.5,0.1,0.7,0.2c0.2,0.1,0.4,0.4,0.5,0.6
			c0.1,0.3,0.2,0.6,0.2,1c0,0.5-0.1,0.9-0.4,1.3c-0.3,0.4-0.6,0.5-1.1,0.5c-0.4,0-0.8-0.2-1.1-0.6C75.4,95.9,75.3,95.5,75.3,95.1z"
			/>
		<path class="st1" d="M81.3,95.4V95l1.3,0v1.3c-0.2,0.2-0.4,0.3-0.6,0.4c-0.2,0.1-0.4,0.1-0.7,0.1c-0.3,0-0.6-0.1-0.8-0.2
			c-0.2-0.1-0.4-0.3-0.6-0.6c-0.1-0.3-0.2-0.6-0.2-1c0-0.4,0.1-0.7,0.2-1c0.1-0.3,0.3-0.5,0.5-0.6c0.2-0.1,0.5-0.2,0.8-0.2
			c0.2,0,0.4,0,0.6,0.1c0.2,0.1,0.3,0.2,0.4,0.3c0.1,0.1,0.2,0.3,0.2,0.6l-0.4,0.1c0-0.2-0.1-0.3-0.2-0.4c-0.1-0.1-0.2-0.2-0.3-0.2
			c-0.1-0.1-0.3-0.1-0.4-0.1c-0.2,0-0.4,0.1-0.6,0.2c-0.2,0.1-0.3,0.3-0.4,0.5c-0.1,0.2-0.1,0.5-0.1,0.8c0,0.5,0.1,0.8,0.3,1.1
			c0.2,0.2,0.5,0.4,0.8,0.4c0.2,0,0.3,0,0.5-0.1c0.2-0.1,0.3-0.2,0.4-0.3v-0.7H81.3z"/>
		<path class="st1" d="M85.2,96.8v-1.5l-1.2-2h0.5l0.6,1.1c0.1,0.2,0.2,0.4,0.3,0.6c0.1-0.2,0.2-0.4,0.3-0.6l0.6-1h0.5l-1.2,2v1.5
			H85.2z"/>
		<rect x="90.6" y="92.8" class="st1" width="0.3" height="4.6"/>
		<path class="st1" d="M95,95.6l0.4,0c0,0.2,0.1,0.3,0.1,0.5c0.1,0.1,0.2,0.2,0.3,0.3c0.1,0.1,0.3,0.1,0.5,0.1
			c0.2,0,0.4-0.1,0.6-0.2C97,96.1,97,96,97,95.8c0-0.1,0-0.2-0.1-0.3c0-0.1-0.1-0.1-0.2-0.2c-0.1,0-0.3-0.1-0.6-0.2
			c-0.3-0.1-0.5-0.2-0.6-0.2c-0.1-0.1-0.2-0.2-0.3-0.3c-0.1-0.1-0.1-0.3-0.1-0.4c0-0.3,0.1-0.5,0.3-0.7c0.2-0.2,0.5-0.3,0.8-0.3
			c0.2,0,0.4,0,0.6,0.1c0.2,0.1,0.3,0.2,0.4,0.4c0.1,0.2,0.1,0.3,0.2,0.6l-0.4,0c0-0.2-0.1-0.4-0.2-0.5c-0.1-0.1-0.3-0.2-0.5-0.2
			c-0.2,0-0.4,0-0.5,0.1c-0.1,0.1-0.2,0.2-0.2,0.4c0,0.1,0,0.3,0.1,0.3c0.1,0.1,0.3,0.2,0.6,0.2c0.3,0.1,0.5,0.1,0.6,0.2
			c0.2,0.1,0.3,0.2,0.4,0.4c0.1,0.1,0.1,0.3,0.1,0.5c0,0.2,0,0.4-0.1,0.5c-0.1,0.2-0.2,0.3-0.4,0.4c-0.2,0.1-0.4,0.1-0.6,0.1
			c-0.4,0-0.7-0.1-0.9-0.3C95.1,96.3,95,96,95,95.6z"/>
		<path class="st1" d="M101.1,93.3h0.4v2c0,0.3,0,0.6-0.1,0.8c-0.1,0.2-0.2,0.4-0.4,0.5c-0.2,0.1-0.4,0.2-0.7,0.2
			c-0.4,0-0.7-0.1-0.9-0.3c-0.2-0.2-0.3-0.6-0.3-1.2v-2h0.4v2c0,0.3,0,0.5,0.1,0.7c0.1,0.1,0.1,0.2,0.3,0.3c0.1,0.1,0.3,0.1,0.4,0.1
			c0.3,0,0.5-0.1,0.6-0.2c0.1-0.2,0.2-0.5,0.2-0.9V93.3z"/>
		<path class="st1" d="M103.7,94.9h0.8c0.2,0,0.4-0.1,0.5-0.2c0.1-0.1,0.2-0.3,0.2-0.5c0-0.1,0-0.3-0.1-0.4s-0.1-0.2-0.2-0.2
			c-0.1,0-0.2-0.1-0.4-0.1h-0.8V94.9L103.7,94.9z M103.3,96.8v-3.5h1.1c0.3,0,0.5,0,0.6,0.1c0.2,0.1,0.3,0.2,0.4,0.3
			c0.1,0.2,0.2,0.4,0.2,0.6c0,0.3-0.1,0.6-0.3,0.8c-0.2,0.2-0.5,0.3-0.9,0.3h-0.8v1.4H103.3z"/>
		<polygon class="st1" points="107.3,96.8 107.3,93.3 109.5,93.3 109.5,93.7 107.7,93.7 107.7,94.7 109.4,94.7 109.4,95.2 
			107.7,95.2 107.7,96.4 109.6,96.4 109.6,96.8 		"/>
		<path class="st1" d="M111.7,94.8h0.9c0.2,0,0.3,0,0.4-0.1c0.1,0,0.2-0.1,0.2-0.2c0.1-0.1,0.1-0.2,0.1-0.3c0-0.2-0.1-0.3-0.2-0.4
			c-0.1-0.1-0.3-0.2-0.5-0.2h-1V94.8L111.7,94.8z M111.3,96.8v-3.5h1.4c0.3,0,0.5,0,0.6,0.1c0.1,0.1,0.2,0.2,0.3,0.3
			c0.1,0.2,0.1,0.3,0.1,0.5c0,0.3-0.1,0.5-0.2,0.6c-0.1,0.2-0.4,0.3-0.6,0.3c0.1,0.1,0.2,0.1,0.3,0.2c0.1,0.1,0.2,0.3,0.3,0.4l0.5,1
			h-0.5l-0.4-0.7c-0.2-0.3-0.3-0.5-0.4-0.6c-0.1-0.1-0.2-0.2-0.2-0.2c-0.1,0-0.2-0.1-0.3-0.1h-0.5v1.6H111.3z"/>
		<rect x="115.6" y="93.3" class="st1" width="0.4" height="3.5"/>
		<path class="st1" d="M118.2,95.1c0,0.4,0.1,0.8,0.3,1c0.2,0.2,0.4,0.4,0.7,0.4c0.3,0,0.5-0.1,0.7-0.4c0.2-0.2,0.3-0.6,0.3-1.1
			c0-0.3-0.1-0.6-0.2-0.8c-0.1-0.2-0.2-0.3-0.4-0.4c-0.2-0.1-0.3-0.2-0.5-0.2c-0.3,0-0.6,0.1-0.8,0.4
			C118.3,94.2,118.2,94.6,118.2,95.1L118.2,95.1z M117.7,95.1c0-0.6,0.1-1.1,0.4-1.4c0.3-0.3,0.6-0.5,1-0.5c0.3,0,0.5,0.1,0.7,0.2
			c0.2,0.1,0.4,0.4,0.5,0.6c0.1,0.3,0.2,0.6,0.2,1c0,0.5-0.1,0.9-0.4,1.3c-0.3,0.4-0.6,0.5-1.1,0.5c-0.5,0-0.8-0.2-1.1-0.6
			C117.9,95.9,117.7,95.5,117.7,95.1z"/>
		<path class="st1" d="M122.7,94.8h0.9c0.2,0,0.3,0,0.4-0.1c0.1,0,0.2-0.1,0.2-0.2c0.1-0.1,0.1-0.2,0.1-0.3c0-0.2-0.1-0.3-0.2-0.4
			c-0.1-0.1-0.3-0.2-0.5-0.2h-1V94.8L122.7,94.8z M122.3,96.8v-3.5h1.4c0.3,0,0.5,0,0.6,0.1c0.1,0.1,0.2,0.2,0.3,0.3
			c0.1,0.2,0.1,0.3,0.1,0.5c0,0.3-0.1,0.5-0.2,0.6c-0.1,0.2-0.4,0.3-0.6,0.3c0.1,0.1,0.2,0.1,0.3,0.2c0.1,0.1,0.2,0.3,0.3,0.4l0.5,1
			h-0.5l-0.4-0.7c-0.2-0.3-0.3-0.5-0.4-0.6c-0.1-0.1-0.2-0.2-0.2-0.2c-0.1,0-0.2-0.1-0.3-0.1h-0.5v1.6H122.3z"/>
		<path class="st1" d="M129.3,94.9h0.8c0.2,0,0.4-0.1,0.5-0.2c0.1-0.1,0.2-0.3,0.2-0.5c0-0.1,0-0.3-0.1-0.4
			c-0.1-0.1-0.1-0.2-0.2-0.2c-0.1,0-0.2-0.1-0.4-0.1h-0.8V94.9L129.3,94.9z M128.9,96.8v-3.5h1.1c0.3,0,0.5,0,0.6,0.1
			c0.2,0.1,0.3,0.2,0.4,0.3c0.1,0.2,0.2,0.4,0.2,0.6c0,0.3-0.1,0.6-0.3,0.8c-0.2,0.2-0.5,0.3-0.9,0.3h-0.8v1.4H128.9z"/>
		<polygon class="st1" points="132.9,96.8 132.9,93.3 135.1,93.3 135.1,93.7 133.3,93.7 133.3,94.7 134.9,94.7 134.9,95.2 
			133.3,95.2 133.3,96.4 135.1,96.4 135.1,96.8 		"/>
		<path class="st1" d="M137.2,94.8h0.9c0.2,0,0.3,0,0.4-0.1c0.1,0,0.2-0.1,0.2-0.2c0.1-0.1,0.1-0.2,0.1-0.3c0-0.2-0.1-0.3-0.2-0.4
			c-0.1-0.1-0.3-0.2-0.5-0.2h-1V94.8L137.2,94.8z M136.8,96.8v-3.5h1.4c0.3,0,0.5,0,0.6,0.1c0.1,0.1,0.2,0.2,0.3,0.3
			c0.1,0.2,0.1,0.3,0.1,0.5c0,0.3-0.1,0.5-0.2,0.6c-0.1,0.2-0.4,0.3-0.6,0.3c0.1,0.1,0.2,0.1,0.3,0.2c0.1,0.1,0.2,0.3,0.3,0.4l0.5,1
			H139l-0.4-0.7c-0.2-0.3-0.3-0.5-0.4-0.6c-0.1-0.1-0.2-0.2-0.2-0.2c-0.1,0-0.2-0.1-0.3-0.1h-0.5v1.6H136.8z"/>
		<polygon class="st1" points="141.1,96.8 141.1,93.3 143.1,93.3 143.1,93.7 141.5,93.7 141.5,94.8 142.9,94.8 142.9,95.2 
			141.5,95.2 141.5,96.8 		"/>
		<path class="st1" d="M145.1,95.1c0,0.4,0.1,0.8,0.3,1c0.2,0.2,0.4,0.4,0.7,0.4c0.3,0,0.5-0.1,0.7-0.4c0.2-0.2,0.3-0.6,0.3-1.1
			c0-0.3-0.1-0.6-0.2-0.8c-0.1-0.2-0.2-0.3-0.4-0.4c-0.2-0.1-0.3-0.2-0.5-0.2c-0.3,0-0.6,0.1-0.8,0.4
			C145.2,94.2,145.1,94.6,145.1,95.1L145.1,95.1z M144.7,95.1c0-0.6,0.1-1.1,0.4-1.4c0.3-0.3,0.6-0.5,1-0.5c0.3,0,0.5,0.1,0.7,0.2
			c0.2,0.1,0.4,0.4,0.5,0.6c0.1,0.3,0.2,0.6,0.2,1c0,0.5-0.1,0.9-0.4,1.3c-0.3,0.4-0.6,0.5-1.1,0.5c-0.5,0-0.8-0.2-1.1-0.6
			C144.8,95.9,144.7,95.5,144.7,95.1z"/>
		<path class="st1" d="M149.7,94.8h0.9c0.2,0,0.3,0,0.4-0.1c0.1,0,0.2-0.1,0.2-0.2c0.1-0.1,0.1-0.2,0.1-0.3c0-0.2-0.1-0.3-0.2-0.4
			c-0.1-0.1-0.3-0.2-0.5-0.2h-1V94.8L149.7,94.8z M149.3,96.8v-3.5h1.4c0.3,0,0.5,0,0.6,0.1c0.1,0.1,0.2,0.2,0.3,0.3
			c0.1,0.2,0.1,0.3,0.1,0.5c0,0.3-0.1,0.5-0.2,0.6c-0.1,0.2-0.4,0.3-0.6,0.3c0.1,0.1,0.2,0.1,0.3,0.2c0.1,0.1,0.2,0.3,0.3,0.4l0.5,1
			h-0.5L151,96c-0.2-0.3-0.3-0.5-0.4-0.6c-0.1-0.1-0.2-0.2-0.2-0.2c-0.1,0-0.2-0.1-0.3-0.1h-0.5v1.6H149.3z"/>
		<path class="st1" d="M153.5,96.8v-3.5h0.6l0.7,2.5l0.1,0.5c0-0.1,0.1-0.3,0.2-0.6l0.7-2.4h0.5v3.5H156v-2.9l-0.9,2.9h-0.4l-0.9-3
			v3H153.5z"/>
		<path class="st1" d="M158.7,95.3h1l-0.3-1c-0.1-0.3-0.2-0.5-0.2-0.7c0,0.2-0.1,0.4-0.2,0.7L158.7,95.3L158.7,95.3z M157.8,96.8
			l1.2-3.5h0.4l1.2,3.5h-0.5l-0.4-1.1h-1.3l-0.3,1.1H157.8z"/>
		<polygon class="st1" points="162.1,96.8 162.1,93.3 162.6,93.3 164.2,96 164.2,93.3 164.5,93.3 164.5,96.8 164.1,96.8 162.5,94 
			162.5,96.8 		"/>
		<path class="st1" d="M168.5,95.5l0.4,0.1c-0.1,0.4-0.2,0.7-0.5,0.9c-0.2,0.2-0.5,0.3-0.8,0.3c-0.3,0-0.5-0.1-0.7-0.2
			c-0.2-0.1-0.4-0.3-0.5-0.6c-0.1-0.3-0.2-0.6-0.2-1c0-0.4,0.1-0.7,0.2-1c0.1-0.3,0.3-0.5,0.5-0.6c0.2-0.1,0.5-0.2,0.7-0.2
			c0.3,0,0.5,0.1,0.8,0.3c0.2,0.2,0.4,0.4,0.4,0.8l-0.4,0.1c-0.1-0.5-0.4-0.7-0.8-0.7c-0.2,0-0.4,0-0.5,0.1
			c-0.1,0.1-0.3,0.3-0.4,0.5c-0.1,0.2-0.1,0.5-0.1,0.8c0,0.5,0.1,0.8,0.3,1.1c0.2,0.2,0.4,0.4,0.7,0.4c0.2,0,0.4-0.1,0.6-0.2
			C168.4,96.1,168.5,95.8,168.5,95.5z"/>
		<polygon class="st1" points="170.6,96.8 170.6,93.3 172.8,93.3 172.8,93.7 171,93.7 171,94.7 172.7,94.7 172.7,95.2 171,95.2 
			171,96.4 172.9,96.4 172.9,96.8 		"/>
	</g>
	<g>
		<path class="st2" d="M161.6,67.1c1-0.9,2.1-1.3,3.4-1.3c1.3,0,2.3,0.4,3,1.2c0.7,0.8,1.1,2,1.1,3.5c0,0.1,0,0.3,0,0.6h-9.5
			C159.9,69.3,160.6,68,161.6,67.1L161.6,67.1z M174.2,74.6c0.3-1.1,0.4-2.4,0.4-3.7c0-2.9-0.8-5.2-2.4-6.8
			c-1.6-1.6-3.8-2.4-6.6-2.4c-2.8,0-5.1,0.6-7.1,1.9l-0.6,2.6l-4.6,4.9c-0.2,1-0.3,2-0.3,3.1c0,1.3,0.2,2.6,0.6,3.7h3.1l-0.8,3.6
			c1.9,1.8,4.3,2.7,7.3,2.7c2.2,0,4.2-0.5,6-1.6c1.8-1,3.2-2.6,4.3-4.7l-5.4-0.9c-1.1,2-2.7,3-4.7,3c-1.2,0-2.3-0.4-3.1-1.3
			c-0.9-0.9-1.3-2-1.3-3.4c0-0.1,0-0.3,0-0.5H174.2z"/>
		<path class="st2" d="M157.7,62.2H140l-0.3,1.4c0.8,0.9,1.2,1.9,1.3,3.1h8.1l-9.8,10.3c-0.3,1.6-0.5,2.8-0.5,3.5
			c0,0.8,0.2,1.7,0.5,2.7l0.1,0.3h15l1-4.6h-10.8l12.4-13.2L157.7,62.2z"/>
		<path class="st2" d="M132.7,74.3c-0.3,1.4-0.7,2.4-1.1,3.1c-0.4,0.7-1,1.2-1.8,1.6c-0.8,0.4-1.7,0.6-2.6,0.6c-0.8,0-1.5-0.2-2-0.7
			c-0.5-0.5-0.8-1-0.8-1.7c0-0.8,0.3-1.5,1-1.9c0.9-0.7,2.9-1.2,6-1.5c0.6-0.1,1.1-0.2,1.5-0.3L132.7,74.3L132.7,74.3z"/>
		<path class="st2" d="M68,74c-0.3,1.4-0.7,2.4-1.1,3.1c-0.4,0.7-1,1.2-1.8,1.6c-0.8,0.4-1.7,0.6-2.6,0.6c-0.8,0-1.5-0.2-2-0.7
			c-0.5-0.5-0.8-1-0.8-1.7c0-0.8,0.3-1.5,1-1.9c0.9-0.7,2.9-1.2,6-1.5c0.6-0.1,1.1-0.2,1.5-0.3L68,74L68,74z"/>
		<path class="st2" d="M137.8,63.3c-1.4-1.1-3.5-1.7-6.4-1.7c-2.8,0-5,0.5-6.7,1.6c-0.4,0.2-0.7,0.5-1,0.8l-0.8,3.8l4.3,0.3
			c0.2-0.8,0.7-1.4,1.3-1.8c0.6-0.4,1.5-0.6,2.6-0.6c1,0,1.8,0.2,2.3,0.6c0.5,0.4,0.8,0.9,0.8,1.5c0,0.5-0.1,1.1-0.4,1.9
			c-1,0.3-2.9,0.6-5.8,0.8c-2.6,0.2-4.6,0.7-6,1.4l-2.1,9.3c0.2,0.3,0.4,0.6,0.7,0.8c1.2,1.2,2.8,1.7,4.6,1.7c1.2,0,2.3-0.3,3.5-0.8
			c1.2-0.5,2.2-1.2,3.1-2.2c0.1,0.8,0.2,1.6,0.4,2.4h5.9c-0.3-1.1-0.5-2.1-0.5-3c0-1,0.3-2.8,0.9-5.3c0.7-3.1,1.1-5,1.3-5.7
			c0.1-0.7,0.2-1.4,0.2-2C139.9,65.8,139.2,64.4,137.8,63.3z"/>
		<path class="st2" d="M118.6,54.1l-1.6,7.2c0,1.2-0.3,2.3-0.7,3.3l-1.3,5.7c0.8,1.1,1.2,2.4,1.2,3.7c0,2-0.6,3.8-1.8,5.6
			c-0.5,0.8-1.2,1.5-2,2.1l-0.4,1.7h6.1l6.5-29.4H118.6z"/>
		<path class="st2" d="M41.7,75c0-0.2,0-0.3,0-0.5c0-2.3-0.8-4.2-2.4-5.7c-1.1-1-3.4-2.2-7.1-3.7c-2.8-1.2-4-1.8-4.4-2.2
			c-0.5-0.4-0.7-0.9-0.7-1.5c0-0.7,0.3-1.2,0.8-1.6c0.6-0.5,1.7-0.7,3.2-0.7c1.6,0,2.8,0.3,3.5,0.9c0.8,0.6,1.2,1.5,1.3,2.7l0.1,0.8
			l5.3-0.2l0.5-2.2c0.1-0.5,0.6-0.9,1.1-0.9h0.5c-0.5-1.9-1.6-3.6-3.2-4.9c-2.2-1.7-5.2-2.6-9-2.6c-3.8,0-6.8,0.9-8.8,2.7
			c-2.1,1.8-3.1,4.1-3.1,6.8c0,1.6,0.4,2.9,1.1,4.1c0.7,1.2,1.7,2.1,2.9,2.9c1.2,0.7,2.9,1.5,5.4,2.5c3,1.2,3.9,1.8,4.2,2
			c0.6,0.4,0.8,0.9,0.8,1.6c0,0.7-0.4,1.4-1.1,1.9c-0.8,0.6-2.1,0.9-4,0.9c-2.2,0-3.8-0.4-4.5-1.3c-0.3-0.3-0.7-1.1-0.8-3.2l0-0.8
			l-7.8,0.4l0,0.8c-0.1,2.1,0.3,4,1.2,5.6c0.9,1.7,2.4,3,4.6,3.9c2.1,0.9,4.5,1.3,7.3,1.3c4.1,0,7.3-1,9.6-3c1.5-1.2,2.5-2.6,3-4.2
			C41.4,76.9,41.5,76.1,41.7,75z"/>
		<path class="st2" d="M52,78.6c-0.4,0-0.6,0-0.7,0c-0.8,0-1-0.2-1-0.2c0,0-0.2-0.1-0.2-0.4c0-0.1,0.1-0.5,0.5-2.6l1.8-8.3h2
			l0.1-0.1c0.6-1.6,1.5-3,2.6-4.1l0.4-1.7h-3.7l1.8-8.2l-9,5.1L46,61.3h-3l-1.3,5.9h2.9L43,74.7c-0.5,2.4-0.8,4-0.8,4.7
			c0,1.6,0.6,2.9,1.8,3.9c1.1,0.9,2.9,1.4,5.2,1.4c1.2,0,2.3-0.1,3.4-0.3l0.6-0.1l0.4-1.7C52.7,81.4,52.2,80.1,52,78.6z"/>
		<path class="st2" d="M71.6,84l4.1-18.7c-0.4-1-1.1-1.9-2-2.6c-1.5-1.2-3.9-1.8-7-1.8c-2.9,0-5.4,0.6-7.2,1.7
			c-1.8,1.2-3.2,2.8-3.9,4.9l-0.4,1L63,69l0.2-0.7c0.2-0.6,0.5-1,0.9-1.3c0.5-0.3,1.2-0.5,2.1-0.5c0.8,0,1.4,0.1,1.8,0.4
			c0.3,0.3,0.5,0.5,0.5,0.9c0,0.2,0,0.6-0.2,1.3c-0.8,0.2-2.3,0.4-5.2,0.7c-3.7,0.3-6.2,1.1-7.7,2.4c-1.5,1.4-2.3,3.2-2.3,5.5
			c0,2,0.7,3.7,2.1,5c1.4,1.3,3.1,2,5.2,2c1.3,0,2.6-0.3,3.9-0.8c0.7-0.3,1.4-0.7,2.1-1.2c0.1,0.3,0.2,0.6,0.2,0.9l0.2,0.6h4.7
			C71.5,84.1,71.5,84,71.6,84z"/>
		<path class="st2" d="M91.1,67.9l3-6.1l-0.8-0.3c-1.1-0.5-2.2-0.7-3.2-0.7c-1.9,0-3.7,0.8-5.3,2.3l0.4-1.8h-7.4l-5.1,22.9h7.9
			l1.6-7.3c0.6-2.6,1.2-4.6,1.7-5.8c0.5-1.1,1.3-2,2.3-2.7c0.9-0.6,1.8-1,2.7-1c0.5,0,1,0.1,1.5,0.2L91.1,67.9z"/>
		<path class="st2" d="M108.8,64c-0.5,0.7-1.2,1.1-2.2,1.4c-1,0.3-2.5,0.4-4.7,0.4h-4.9l1.5-6.9h5c1.8,0,2.9,0,3.4,0.1
			c0.8,0.2,1.5,0.5,1.9,1c0.5,0.5,0.7,1.1,0.7,1.8C109.5,62.7,109.3,63.4,108.8,64L108.8,64z M107.7,76.7c-0.5,0.7-1.2,1.2-2.1,1.6
			c-0.9,0.3-2.6,0.5-5.2,0.5h-6.2l1.7-7.7h7.6c1.8,0,3.1,0.3,3.8,1c0.8,0.6,1.1,1.4,1.1,2.4C108.5,75.2,108.3,76,107.7,76.7
			L107.7,76.7z M110,68.1c2-0.6,3.5-1.5,4.5-2.7c1-1.2,1.4-2.6,1.4-4.2c0-1.2-0.3-2.3-0.8-3.3c-0.6-1-1.4-1.8-2.4-2.4
			c-1.1-0.6-2.4-1-3.9-1.2c-0.9-0.1-2.5-0.2-4.8-0.2H93.3L92,60c0.6,0.1,1.1,0.3,1.7,0.5l0.8,0.3c0.3,0.1,0.5,0.3,0.6,0.6
			c0.1,0.3,0.1,0.6,0,0.8l-3,6.1c-0.2,0.4-0.6,0.6-1,0.6c-0.1,0-0.3,0-0.4-0.1L90,68.8l-3.2,14.6h14.7c3.2,0,5.8-0.3,7.7-1
			c1.9-0.7,3.3-1.8,4.4-3.4c1.1-1.6,1.6-3.3,1.6-5c0-1.3-0.4-2.5-1.3-3.6C112.8,69.3,111.6,68.6,110,68.1z"/>
		<path class="st3" d="M161.5,67c1-0.9,2.1-1.3,3.4-1.3c1.3,0,2.3,0.4,3,1.2c0.7,0.8,1.1,2,1.1,3.5c0,0.1,0,0.3,0,0.6h-9.5
			C159.8,69.2,160.5,67.9,161.5,67L161.5,67z M174.1,74.5c0.3-1.1,0.4-2.4,0.4-3.7c0-2.9-0.8-5.2-2.4-6.8c-1.6-1.6-3.8-2.4-6.6-2.4
			c-2.8,0-5.1,0.6-7.1,1.9l-0.6,2.6l-4.6,4.9c-0.2,1-0.3,2-0.3,3.1c0,1.3,0.2,2.6,0.6,3.7h3.1l-0.8,3.6c1.9,1.8,4.3,2.7,7.3,2.7
			c2.2,0,4.2-0.5,6-1.6c1.8-1,3.2-2.6,4.3-4.7l-5.4-0.9c-1.1,2-2.7,3-4.7,3c-1.2,0-2.3-0.4-3.1-1.3c-0.9-0.9-1.3-2-1.3-3.4
			c0-0.1,0-0.3,0-0.5H174.1z"/>
		<path class="st3" d="M157.6,62.1h-17.7l-0.3,1.4c0.8,0.9,1.2,1.9,1.3,3.1h8.1l-9.8,10.3c-0.3,1.6-0.5,2.8-0.5,3.5
			c0,0.8,0.2,1.7,0.5,2.7l0.1,0.3h15l1-4.6h-10.8l12.4-13.2L157.6,62.1z"/>
		<path class="st3" d="M132.6,74.2c-0.3,1.4-0.7,2.4-1.1,3.1c-0.4,0.7-1,1.2-1.8,1.6c-0.8,0.4-1.7,0.6-2.6,0.6c-0.8,0-1.5-0.2-2-0.7
			c-0.5-0.5-0.8-1-0.8-1.7c0-0.8,0.3-1.5,1-1.9c0.9-0.7,2.9-1.2,6-1.5c0.6-0.1,1.1-0.2,1.5-0.3L132.6,74.2L132.6,74.2z M137.7,63.2
			c-1.4-1.1-3.5-1.7-6.4-1.7c-2.8,0-5,0.5-6.7,1.6c-0.4,0.2-0.7,0.5-1,0.8l-0.8,3.8l4.3,0.3c0.2-0.8,0.7-1.4,1.3-1.8
			c0.6-0.4,1.5-0.6,2.6-0.6c1,0,1.8,0.2,2.3,0.6c0.5,0.4,0.8,0.9,0.8,1.5c0,0.5-0.1,1.1-0.4,1.9c-1,0.3-2.9,0.6-5.8,0.8
			c-2.6,0.2-4.6,0.7-6,1.4l-2.1,9.3c0.2,0.3,0.4,0.6,0.7,0.8c1.2,1.2,2.8,1.7,4.6,1.7c1.2,0,2.3-0.3,3.5-0.8
			c1.2-0.5,2.2-1.2,3.1-2.2c0.1,0.8,0.2,1.6,0.4,2.4h5.9c-0.3-1.1-0.5-2.1-0.5-3c0-1,0.3-2.8,0.9-5.3c0.7-3.1,1.1-5,1.3-5.7
			c0.1-0.7,0.2-1.4,0.2-2C139.8,65.7,139.1,64.3,137.7,63.2z"/>
		<path class="st3" d="M118.5,54l-1.6,7.2c0,1.2-0.3,2.3-0.7,3.3l-1.3,5.7c0.8,1.1,1.2,2.4,1.2,3.7c0,2-0.6,3.8-1.8,5.6
			c-0.5,0.8-1.2,1.5-2,2.1l-0.4,1.7h6.1l6.5-29.4H118.5z"/>
		<path class="st3" d="M41.6,74.9c0-0.2,0-0.3,0-0.5c0-2.3-0.8-4.2-2.4-5.7c-1.1-1-3.4-2.2-7.1-3.7c-2.8-1.2-4-1.8-4.4-2.2
			c-0.5-0.4-0.7-0.9-0.7-1.5c0-0.7,0.3-1.2,0.8-1.6c0.6-0.5,1.7-0.7,3.2-0.7c1.6,0,2.8,0.3,3.5,0.9c0.8,0.6,1.2,1.5,1.3,2.7l0.1,0.8
			l5.3-0.2l0.5-2.2c0.1-0.5,0.6-0.9,1.1-0.9h0.5c-0.5-1.9-1.6-3.6-3.2-4.9c-2.2-1.7-5.2-2.6-9-2.6c-3.8,0-6.8,0.9-8.8,2.7
			c-2.1,1.8-3.1,4.1-3.1,6.8c0,1.6,0.4,2.9,1.1,4.1c0.7,1.2,1.7,2.1,2.9,2.9c1.2,0.7,2.9,1.5,5.4,2.5c3,1.2,3.9,1.8,4.2,2
			c0.6,0.4,0.8,0.9,0.8,1.6c0,0.7-0.4,1.4-1.1,1.9c-0.8,0.6-2.1,0.9-4,0.9c-2.2,0-3.8-0.4-4.5-1.3c-0.3-0.3-0.7-1.1-0.8-3.2l0-0.8
			L15.4,73l0,0.8c-0.1,2.1,0.3,4,1.2,5.6c0.9,1.7,2.4,3,4.6,3.9c2.1,0.9,4.5,1.3,7.3,1.3c4.1,0,7.3-1,9.6-3c1.5-1.2,2.5-2.6,3-4.2
			C41.2,76.8,41.4,76,41.6,74.9z"/>
		<path class="st3" d="M51.9,78.5c-0.4,0-0.6,0-0.7,0c-0.8,0-1-0.2-1-0.2c0,0-0.2-0.1-0.2-0.4c0-0.1,0.1-0.5,0.5-2.6l1.8-8.3h2
			l0.1-0.1c0.6-1.6,1.5-3,2.6-4.1l0.4-1.7h-3.7l1.8-8.2l-9,5.1l-0.7,3.1h-3l-1.3,5.9h2.9l-1.7,7.6c-0.5,2.4-0.8,4-0.8,4.7
			c0,1.6,0.6,2.9,1.8,3.9c1.1,0.9,2.9,1.4,5.2,1.4c1.2,0,2.3-0.1,3.4-0.3l0.6-0.1l0.4-1.7C52.6,81.3,52,80,51.9,78.5z"/>
		<path class="st3" d="M66,76.8c-0.3,0.5-0.8,1-1.5,1.3c-0.7,0.4-1.4,0.5-2.2,0.5c-0.6,0-1.1-0.2-1.4-0.5c-0.3-0.3-0.5-0.7-0.5-1.1
			c0-0.6,0.2-1,0.7-1.3c0.6-0.4,2-1,5.6-1.4c0.1,0,0.2,0,0.2,0C66.7,75.5,66.4,76.3,66,76.8L66,76.8z M71.4,83.9l4.1-18.7
			c-0.4-1-1.1-1.9-2-2.6c-1.5-1.2-3.9-1.8-7-1.8c-2.9,0-5.4,0.6-7.2,1.7c-1.8,1.2-3.2,2.8-3.9,4.9l-0.4,1l7.8,0.6l0.2-0.7
			c0.2-0.6,0.5-1,0.9-1.3c0.5-0.3,1.2-0.5,2.1-0.5c0.8,0,1.4,0.1,1.8,0.4c0.3,0.3,0.5,0.5,0.5,0.9c0,0.2,0,0.6-0.2,1.3
			c-0.8,0.2-2.3,0.4-5.2,0.7c-3.7,0.3-6.2,1.1-7.7,2.4c-1.5,1.4-2.3,3.2-2.3,5.5c0,2,0.7,3.7,2.1,5c1.4,1.3,3.1,2,5.2,2
			c1.3,0,2.6-0.3,3.9-0.8c0.7-0.3,1.4-0.7,2.1-1.2c0.1,0.3,0.2,0.6,0.2,0.9l0.2,0.6h4.7C71.4,84,71.4,84,71.4,83.9z"/>
		<path class="st3" d="M90.9,67.9l3-6.1l-0.8-0.3c-1.1-0.5-2.2-0.7-3.2-0.7c-1.9,0-3.7,0.8-5.3,2.3l0.4-1.8h-7.4l-5.1,22.9h7.9
			l1.6-7.3c0.6-2.6,1.2-4.6,1.7-5.8c0.5-1.1,1.3-2,2.3-2.7c0.9-0.6,1.8-1,2.7-1c0.5,0,1,0.1,1.5,0.2L90.9,67.9z"/>
		<path class="st3" d="M108.7,64c-0.5,0.7-1.2,1.1-2.2,1.4c-1,0.3-2.5,0.4-4.7,0.4h-4.9l1.5-6.9h5c1.8,0,2.9,0,3.4,0.1
			c0.8,0.2,1.5,0.5,1.9,1c0.5,0.5,0.7,1.1,0.7,1.8C109.4,62.6,109.2,63.3,108.7,64L108.7,64z M107.6,76.6c-0.5,0.7-1.2,1.2-2.1,1.6
			c-0.9,0.3-2.6,0.5-5.2,0.5h-6.2l1.7-7.7h7.6c1.8,0,3.1,0.3,3.8,1c0.8,0.6,1.1,1.4,1.1,2.4C108.4,75.1,108.1,75.9,107.6,76.6
			L107.6,76.6z M109.9,68.1c2-0.6,3.5-1.5,4.5-2.7c1-1.2,1.4-2.6,1.4-4.2c0-1.2-0.3-2.3-0.8-3.3c-0.6-1-1.4-1.8-2.4-2.4
			c-1.1-0.6-2.4-1-3.9-1.2c-0.9-0.1-2.5-0.2-4.8-0.2H93.2l-1.3,5.9c0.6,0.1,1.1,0.3,1.7,0.5l0.8,0.3c0.3,0.1,0.5,0.3,0.6,0.6
			c0.1,0.3,0.1,0.6,0,0.8l-3,6.1c-0.2,0.4-0.6,0.6-1,0.6c-0.1,0-0.3,0-0.4-0.1l-0.6-0.2l-3.2,14.6h14.7c3.2,0,5.8-0.3,7.7-1
			c1.9-0.7,3.3-1.8,4.4-3.4c1.1-1.6,1.6-3.3,1.6-5c0-1.3-0.4-2.5-1.3-3.6C112.7,69.2,111.5,68.5,109.9,68.1z"/>
		<path class="st1" d="M177.4,54c0.7,0,1.3,0.2,2,0.5c0.6,0.3,1.2,0.9,1.5,1.5c0.4,0.7,0.5,1.3,0.5,2c0,0.7-0.2,1.4-0.5,2
			c-0.4,0.6-0.9,1.1-1.5,1.5c-0.6,0.4-1.3,0.5-2,0.5c-0.7,0-1.4-0.2-2-0.5c-0.6-0.4-1.1-0.9-1.5-1.5c-0.4-0.6-0.5-1.3-0.5-2
			c0-0.7,0.2-1.4,0.5-2c0.4-0.7,0.9-1.2,1.5-1.5C176.1,54.2,176.8,54,177.4,54L177.4,54z M177.4,54.7c-0.6,0-1.1,0.1-1.7,0.4
			c-0.5,0.3-1,0.7-1.3,1.3c-0.3,0.5-0.5,1.1-0.5,1.7c0,0.6,0.2,1.1,0.5,1.7c0.3,0.5,0.7,1,1.3,1.3c0.5,0.3,1.1,0.4,1.7,0.4
			c0.6,0,1.1-0.2,1.7-0.4c0.5-0.3,1-0.7,1.3-1.3c0.3-0.5,0.4-1.1,0.4-1.7c0-0.6-0.2-1.2-0.5-1.7c-0.3-0.5-0.7-1-1.3-1.3
			C178.6,54.8,178,54.7,177.4,54.7L177.4,54.7z M175.7,60.3h0.7v-1.9h0.4c0.2,0,0.4,0,0.6,0.1c0.2,0.1,0.4,0.5,0.7,1l0.4,0.7h0.9
			l-0.5-0.9c-0.3-0.4-0.5-0.7-0.6-0.9c-0.1-0.1-0.2-0.2-0.4-0.2c0.4,0,0.7-0.2,0.9-0.4c0.2-0.2,0.3-0.5,0.3-0.8
			c0-0.2-0.1-0.4-0.2-0.6c-0.1-0.2-0.3-0.3-0.6-0.4c-0.2-0.1-0.6-0.1-1.1-0.1h-1.5V60.3L175.7,60.3z M176.4,57.8h0.9
			c0.4,0,0.7-0.1,0.8-0.2c0.1-0.1,0.2-0.3,0.2-0.5c0-0.1,0-0.2-0.1-0.3c-0.1-0.1-0.2-0.2-0.3-0.2c-0.1,0-0.4-0.1-0.7-0.1h-0.8V57.8z
			"/>
	</g>
	<path class="st1" d="M66.7,32.1l11.5,0.1c-5,7-11.2,14.3-16.2,21.4c-0.3,0.4,0.2,0.4,0.4,0.8c7.9-8.6,15.8-17.3,23.7-25.9l-9.5,0.1
		l11.2-16l-1.5-1.8"/>
	<path class="st1" d="M65.6,33.2l11,0L62.1,52.1c0,0-0.2,0.3-0.1,0.3c0.4-0.4-0.3,0.8,0.1,0.4c7-7.1,15.4-16.1,22.4-23.2
		c-6.1,0.9-12.1,1.7-18.2,2.6"/>
	<path class="st3" d="M87.7,11.5c-1.3-1.4-2.8-2.7-4.4-3.8L65.9,32.5l12.4,0.1L62.2,52.4l-1.4-4l-1.2,2.1c0.8,1.2,1.6,2.3,2.4,3.5
		l0.6-0.6l0,0L85.1,29l-9.9,0.1L87.7,11.5z"/>
	<path class="st1" d="M74.9,6.5"/>
	<g>
		<path class="st1" d="M77.4,5.1c-2.3-0.9-4.8-1.4-7.4-1.7L46,39.3L62,39.4c-5.4,9.7-12.8,21-18.2,30.7c0.1,0-1,1.6-0.7,1.5
			c0.1,0,0.1,0,0.2,0c0,0,0.1,0,0.1,0c9.3-11.9,20.1-25.4,29.4-37.3L59,34.4L79.1,6.1L77.4,5.1z"/>
		<polyline class="st1" points="44.2,40.5 59.9,40.7 42.9,71.4 70.7,35.6 45.3,39.1 		"/>
	</g>
	<path class="st3" d="M76.1,5.8c-2.3-0.9-4.8-1.4-7.4-1.7L44.7,39.9L60.7,40l-17,30.7l27.8-35.8l-13.8,0.1L77.8,6.8L76.1,5.8z"/>
	<path class="st1" d="M85.4,46.5l-0.9-0.9c2.2-1.9,4-4.1,5.3-6.6c6.3-11.6,1.3-25.9-11-31.9c-6-2.9-12.8-3.4-19.2-1.4
		c-6.4,2-11.6,6.1-14.6,11.8c-1.2,2.2-2,4.5-2.4,6.9l-1.3-0.2c0.4-2.5,1.3-4.9,2.5-7.3C47,11,52.5,6.6,59.2,4.6S73.1,3,79.4,6
		c13,6.2,18.2,21.3,11.6,33.5C89.5,42.2,87.6,44.5,85.4,46.5z"/>
	<path class="st3" d="M85.8,47l-0.9-0.9c2.2-1.9,4.1-4.2,5.4-6.8c6.4-12,1.4-26.7-11.3-32.8C72.9,3.5,65.9,3,59.3,5
		c-6.6,2-11.9,6.3-15,12.1c-1.2,2.3-2,4.7-2.5,7.1l-1.3-0.2c0.4-2.6,1.3-5.1,2.6-7.5C46.4,10.5,52,6,58.9,3.8
		c6.9-2.1,14.2-1.6,20.7,1.5C93,11.8,98.3,27.2,91.5,39.8C90.1,42.5,88.1,44.9,85.8,47z"/>
</g>
</svg>
